<?xml version="1.0" standalone="no"?>
<!DOCTYPE svg PUBLIC "-//W3C//DTD SVG 20010904//EN"
 "http://www.w3.org/TR/2001/REC-SVG-20010904/DTD/svg10.dtd">
<svg version="1.0" xmlns="http://www.w3.org/2000/svg"
 width="512.000000pt" height="512.000000pt" viewBox="0 0 512.000000 512.000000"
 preserveAspectRatio="xMidYMid meet">

<rect width="512" height="512" rx="96" fill="#5B8DEF"/>

<g transform="translate(40.000000,472.000000) scale(0.084375,-0.084375)"
fill="#000000" stroke="none">
<path d="M2411 4699 c-288 -56 -521 -268 -611 -554 -48 -153 -36 -371 29 -527
96 -228 317 -414 551 -464 l80 -17 0 -483 0 -483 -762 -3 -763 -3 -56 -26
c-65 -31 -120 -82 -151 -142 -19 -36 -23 -61 -26 -179 l-4 -136 -161 -4 c-153
-3 -165 -5 -213 -30 -28 -15 -70 -48 -92 -73 -72 -82 -73 -92 -70 -531 3 -382
3 -390 26 -431 35 -66 79 -110 140 -140 l57 -28 400 0 400 0 57 28 c32 16 75
48 97 73 71 81 72 91 69 535 -3 451 0 434 -98 523 -71 63 -120 76 -287 76
l-133 0 1 93 c0 117 13 157 59 179 32 17 90 18 773 18 l737 0 0 -144 0 -144
-152 -4 c-129 -3 -160 -7 -199 -24 -66 -31 -114 -78 -146 -142 l-28 -57 0
-395 c0 -383 1 -396 21 -441 28 -60 86 -118 149 -149 l50 -25 395 0 c365 0
399 1 445 19 65 25 137 94 166 159 24 52 24 54 24 437 l0 385 -33 68 c-24 47
-47 77 -79 102 -68 52 -125 65 -280 65 l-133 0 0 145 0 145 751 -2 751 -3 29
-33 c28 -32 29 -35 29 -141 l0 -109 -147 -4 c-139 -3 -152 -5 -206 -32 -64
-31 -126 -99 -149 -163 -10 -29 -13 -127 -13 -418 0 -351 1 -384 19 -430 25
-65 94 -137 159 -166 52 -24 53 -24 447 -24 l395 0 56 26 c66 31 120 84 151
148 23 46 23 50 23 441 l0 395 -28 57 c-32 64 -80 111 -146 142 -39 18 -70 21
-203 24 l-156 4 -4 131 c-3 119 -6 137 -30 183 -28 53 -86 112 -136 138 -62
32 -156 36 -874 36 l-718 0 0 483 0 483 78 18 c42 9 118 37 167 61 413 201
566 712 333 1110 -50 85 -190 226 -270 274 -78 45 -162 78 -247 96 -78 16
-238 18 -310 4z m294 -204 c102 -26 183 -74 267 -156 63 -61 85 -92 117 -160
64 -138 77 -263 41 -404 -54 -211 -217 -372 -431 -426 -310 -79 -632 114 -714
426 -19 73 -19 223 -1 292 55 207 218 372 425 429 65 17 225 17 296 -1z
m-1523 -3044 l33 -29 0 -361 0 -361 -28 -27 -27 -28 -376 0 -376 0 -24 28 -24
28 0 360 0 361 29 29 29 29 366 0 366 0 32 -29z m1764 11 c43 -34 44 -47 44
-407 l0 -347 -34 -34 -34 -34 -356 0 c-380 0 -401 2 -426 49 -6 13 -10 151
-10 376 l0 357 29 29 29 29 369 0 c334 0 370 -2 389 -18z m1781 -6 l28 -24 3
-353 c2 -254 -1 -361 -9 -381 -23 -56 -35 -58 -419 -58 -383 0 -394 2 -419 57
-7 16 -11 141 -11 364 0 359 3 382 47 408 11 7 154 11 385 11 l367 0 28 -24z"/>
<path d="M957 1243 c-40 -37 -111 -106 -159 -152 l-88 -86 -62 61 c-76 74
-105 94 -136 94 -34 0 -72 -43 -72 -82 0 -29 13 -46 112 -142 120 -115 144
-131 181 -117 13 5 108 92 211 193 168 165 187 186 186 216 0 41 -38 82 -76
82 -18 0 -46 -19 -97 -67z"/>
<path d="M2681 1197 c-64 -61 -135 -130 -158 -151 l-43 -40 -72 71 c-40 38
-83 73 -96 77 -58 19 -118 -47 -93 -102 14 -30 214 -223 243 -234 36 -14 75
16 256 195 171 170 182 184 182 218 0 29 -6 43 -26 58 -49 39 -68 30 -193 -92z"/>
<path d="M4565 1300 c-11 -4 -83 -72 -160 -149 -77 -78 -144 -141 -149 -141
-5 0 -44 34 -87 75 -85 83 -109 91 -155 52 -19 -17 -27 -33 -27 -56 0 -28 15
-48 113 -146 62 -62 123 -115 135 -117 12 -3 33 -1 46 4 25 9 364 337 386 373
19 32 15 54 -16 86 -30 30 -51 34 -86 19z"/>
</g>
</svg>
