<?xml version="1.0" standalone="no"?>
<!DOCTYPE svg PUBLIC "-//W3C//DTD SVG 20010904//EN"
 "http://www.w3.org/TR/2001/REC-SVG-20010904/DTD/svg10.dtd">
<svg version="1.0" xmlns="http://www.w3.org/2000/svg"
 width="512.000000pt" height="512.000000pt" viewBox="0 0 512.000000 512.000000"
 preserveAspectRatio="xMidYMid meet">

<rect width="512" height="512" rx="96" fill="#4CB0D9"/>

<g transform="translate(40.000000,472.000000) scale(0.084375,-0.084375)"
fill="#000000" stroke="none">
<path d="M2330 4180 c-642 -79 -1311 -459 -1929 -1095 -164 -170 -353 -393
-381 -451 -44 -89 -24 -137 130 -321 557 -667 1251 -1153 1873 -1312 175 -45
289 -62 462 -68 618 -22 1226 226 1880 768 199 165 552 535 706 739 68 91 65
155 -13 257 -151 199 -495 557 -693 722 -504 419 -976 657 -1475 746 -111 20
-446 28 -560 15z m472 -345 c224 -33 424 -100 661 -218 330 -165 690 -437
1002 -758 126 -130 265 -287 265 -300 0 -35 -425 -465 -613 -621 -405 -335
-811 -550 -1203 -634 -163 -35 -428 -44 -593 -19 -483 71 -996 349 -1491 807
-181 167 -440 443 -440 468 0 36 418 460 611 620 440 366 886 589 1304 654
121 19 376 19 497 1z"/>
<path d="M2375 3556 c-314 -61 -580 -264 -720 -551 -82 -168 -100 -245 -100
-445 0 -200 18 -277 100 -445 101 -208 252 -359 460 -460 167 -82 245 -99 445
-99 200 0 278 17 445 99 135 66 251 157 340 268 79 98 164 266 197 387 19 72
22 110 22 250 0 200 -17 278 -99 445 -101 208 -252 359 -460 460 -152 75 -245
97 -420 101 -90 2 -165 -1 -210 -10z m365 -347 c184 -49 340 -179 425 -354 54
-113 68 -182 63 -320 -7 -191 -62 -318 -193 -450 -149 -148 -337 -215 -547
-194 -157 16 -288 79 -403 194 -148 149 -215 336 -194 548 16 156 79 287 194
402 176 175 412 238 655 174z"/>
</g>
</svg>
