<svg width="16" height="16" viewBox="0 0 16 16" fill="none" xmlns="http://www.w3.org/2000/svg">
  <path d="M7 1.5C7 1.22386 7.22386 1 7.5 1H8.5C8.77614 1 9 1.22386 9 1.5V8.3L10.9 6.4C11.0953 6.20474 11.4118 6.20474 11.6071 6.4L12.3142 7.10711C12.5095 7.30237 12.5095 7.61895 12.3142 7.81421L8.70711 11.4213C8.31658 11.8118 7.68342 11.8118 7.29289 11.4213L3.68579 7.81421C3.49052 7.61895 3.49052 7.30237 3.68579 7.10711L4.39289 6.4C4.58816 6.20474 4.90474 6.20474 5.1 6.4L7 8.3V1.5Z" fill="#C5C7D0"/>
  <path d="M2 11.5C2 11.2239 2.22386 11 2.5 11H13.5C13.7761 11 14 11.2239 14 11.5V14C14 14.5523 13.5523 15 13 15H3C2.44772 15 2 14.5523 2 14V11.5ZM4 12.5V13.5H12V12.5H4Z" fill="#C5C7D0"/>
</svg>
